<?xml version="1.0" ?>
<!-- Uploaded to: SVG Repo, www.svgrepo.com, Generator: SVG Repo Mixer Tools -->
<svg width="800px" height="800px" viewBox="0 0 512 512" id="svg2793" style="fill-rule:evenodd;clip-rule:evenodd;stroke-linejoin:round;stroke-miterlimit:2;" version="1.1" xml:space="preserve" xmlns="http://www.w3.org/2000/svg" xmlns:cc="http://creativecommons.org/ns#" xmlns:dc="http://purl.org/dc/elements/1.1/" xmlns:rdf="http://www.w3.org/1999/02/22-rdf-syntax-ns#" xmlns:serif="http://www.serif.com/" xmlns:svg="http://www.w3.org/2000/svg">
<defs id="defs2797"/>
<g id="_05-Bar-Chart" style="display:inline" transform="translate(-4096,-6.99984e-4)">
<g id="g2698" transform="translate(4603.61,69.3637)">
<path d="m 0,371.809 -45.22,-45.21 c -5.858,-5.856 -15.356,-5.856 -21.213,0.003 -5.857,5.857 -5.856,15.355 0.002,21.213 l 19.607,19.601 H -432.396 V -18.155 l 19.615,19.61 c 2.928,2.928 6.767,4.392 10.605,4.392 3.839,0 7.679,-1.465 10.608,-4.394 5.857,-5.859 5.856,-15.357 -0.002,-21.213 l -45.22,-45.21 c -5.857,-5.858 -15.355,-5.857 -21.212,0.001 l -45.21,45.21 c -5.858,5.857 -5.858,15.355 0,21.213 5.858,5.858 15.356,5.858 21.213,0 l 19.603,-19.604 v 385.566 h -30.209 c -8.285,0 -15,6.717 -15,15 0,8.286 6.715,15 15,15 h 30.209 v 30.221 c 0,8.284 6.716,15 15,15 8.285,0 15,-6.716 15,-15 v -30.221 h 385.578 l -19.614,19.615 c -5.858,5.858 -5.858,15.355 0,21.213 2.929,2.928 6.768,4.393 10.607,4.393 3.839,0 7.678,-1.465 10.606,-4.393 l 45.22,-45.22 c 2.813,-2.814 4.394,-6.629 4.394,-10.608 0,-3.978 -1.582,-7.794 -4.395,-10.607" id="path2696" style="fill-rule:nonzero"/>
</g>
<g id="g2702" transform="translate(4264.94,376.78)">
<path d="m 0,-34.129 h 141.81 c 9.407,0 17.06,7.657 17.06,17.069 0,9.408 -7.653,17.06 -17.06,17.06 H 0 c -9.407,0 -17.061,-7.652 -17.061,-17.06 0,-9.412 7.654,-17.069 17.061,-17.069 M 0,30 h 141.81 c 25.949,0 47.06,-21.11 47.06,-47.06 0,-25.954 -21.111,-47.069 -47.06,-47.069 H 0 c -25.949,0 -47.061,21.115 -47.061,47.069 C -47.061,8.89 -25.949,30 0,30" id="path2700" style="fill-rule:nonzero"/>
</g>
<g id="g2706" transform="translate(4252.88,247.674)">
<path d="m 0,-24.136 c 3.177,-3.176 7.574,-4.997 12.065,-4.997 h 204.871 c 4.558,0 8.848,1.777 12.072,4.996 3.176,3.176 4.997,7.572 4.997,12.064 v 0.009 c 0,4.492 -1.821,8.889 -4.988,12.056 -3.233,3.227 -7.523,5.005 -12.081,5.005 H 12.065 C 7.574,4.997 3.177,3.176 0.001,0 c -3.175,-3.175 -4.996,-7.572 -4.996,-12.073 0,-4.492 1.821,-8.888 4.995,-12.063 m 12.065,59.133 h 204.871 c 12.562,0 24.38,-4.893 33.286,-13.783 8.759,-8.76 13.783,-20.889 13.783,-33.278 v -0.009 c 0,-12.388 -5.024,-24.517 -13.792,-33.286 -8.897,-8.882 -20.715,-13.774 -33.277,-13.774 H 12.065 c -12.387,0 -24.516,5.023 -33.278,13.783 -8.759,8.76 -13.782,20.889 -13.782,33.286 0,12.389 5.023,24.518 13.783,33.278 8.761,8.759 20.89,13.783 33.277,13.783" id="path2704" style="fill-rule:nonzero"/>
</g>
<g id="g2710" transform="translate(4264.94,128.56)">
<path d="m 0,-34.13 h 249.87 c 9.412,0 17.069,7.653 17.069,17.061 C 266.939,-7.657 259.282,0 249.87,0 H 0 c -9.407,0 -17.061,-7.657 -17.061,-17.069 0,-9.408 7.654,-17.061 17.061,-17.061 M 0,30 h 249.87 c 25.954,0 47.069,-21.115 47.069,-47.069 0,-25.95 -21.115,-47.061 -47.069,-47.061 H 0 c -25.949,0 -47.061,21.111 -47.061,47.061 C -47.061,8.885 -25.949,30 0,30" id="path2708" style="fill-rule:nonzero"/>
</g>
</g>
</svg>